<svg width="534" height="454" viewBox="0 0 534 454" fill="none" xmlns="http://www.w3.org/2000/svg">
<g clip-path="url(#clip0_605_3697)">
<path d="M110.578 29.5338C98.1681 40.3729 89.6355 55.6544 87.6634 73.2539L156.234 80.9379L110.578 29.5338Z" fill="#57F4BD"/>
<path d="M163.973 12.3731C143.858 10.1191 124.798 16.768 110.715 29.1777L156.289 80.946L101.993 123.471C113.006 137.551 129.445 147.368 148.605 149.515C186.448 153.755 220.561 126.492 224.805 88.6238C229.048 50.756 201.812 16.6133 163.973 12.3731Z" fill="#9B51E0"/>
<path d="M155.419 11.9172C138.87 12.0526 122.32 18.1065 109.202 30.216L156.004 80.9144L155.419 11.9172Z" fill="#EC7986"/>
<path d="M87.6632 73.2539C85.5818 91.8281 91.1808 109.504 101.933 123.153L156.234 80.9379L87.6632 73.2539Z" fill="#FF9A3C"/>
<path d="M379.944 60.3798L296.5 31L350.967 80.3282L250 106.76L409.5 135.5L486.798 206L475 147L534.5 130.5L486.798 106.76L528 74.8424H455.104L486.798 14L413.902 60.3798L386.736 18.4884L379.944 60.3798Z" fill="#FFCA99"/>
<path d="M411.126 279.859C425.203 277.831 450.423 276.323 450.441 299.349C450.462 328.132 419.212 328.99 429.484 307.105C441.162 282.224 475.848 255.587 484.944 287.851C494.04 320.116 436.134 317.282 480.795 262.505C525.455 207.728 527.331 286.479 506.59 272.523C493.972 264.032 502.639 220.274 520.862 206" stroke="#1B1A1C" stroke-width="2"/>
<path d="M325.399 447.822H35.8512C27.2085 447.822 20.136 440.749 20.136 432.107V150.517C20.136 141.875 27.2085 134.802 35.8512 134.802H325.399C334.042 134.802 341.114 141.875 341.114 150.517V432.11C341.114 440.749 334.042 447.822 325.399 447.822Z" fill="#E6E5E6"/>
<path d="M341.114 149.642C341.114 141.482 334.437 134.806 326.277 134.806H34.9753C26.8155 134.806 20.1389 141.482 20.1389 149.642V343.314H341.114V149.642Z" fill="#57F4BD"/>
<path d="M332.657 319.637L336.474 323.451L341.112 328.089V314.59L339.406 312.884L332.657 319.637Z" fill="#1B1A1C"/>
<path d="M20.1389 343.314C59.5104 343.314 61.8378 288.273 80.8288 288.273C99.8198 288.273 93.2579 327.658 115.757 327.658C138.257 327.658 139.195 233.519 157.943 233.519C176.69 233.519 180.626 305.562 203.876 305.562C232.934 305.562 224.5 202.78 259.185 202.78C293.871 202.78 271.173 289.232 341.11 253.692V343.314H20.1389Z" fill="#FF9A3C"/>
<path d="M310.644 430.304H51.5019C45.1621 430.304 39.9999 425.145 39.9999 418.802V371.98C39.9999 365.64 45.1623 360.478 51.5019 360.478H310.644C316.984 360.478 322.146 365.637 322.146 371.98V418.802C322.146 425.145 316.987 430.304 310.644 430.304Z" stroke="#1B1A1C" stroke-width="2"/>
<path d="M151.302 375.9H53.4641V388.753H151.302V375.9Z" fill="#9B51E0"/>
<path d="M256.949 399.813H53.4641V412.666H256.949V399.813Z" fill="#1B1A1C"/>
<path d="M212.537 375.9H163.616V388.753H212.537V375.9Z" fill="#9B51E0"/>
<path d="M321.535 159H34.4652C34.2083 159 33.9999 158.552 33.9999 158C33.9999 157.448 34.2083 157 34.4652 157H321.535C321.792 157 322 157.448 322 158C322 158.552 321.792 159 321.535 159Z" fill="#1B1A1C"/>
<path d="M39.5504 151.521C41.96 151.521 43.9134 149.568 43.9134 147.158C43.9134 144.749 41.96 142.795 39.5504 142.795C37.1408 142.795 35.1874 144.749 35.1874 147.158C35.1874 149.568 37.1408 151.521 39.5504 151.521Z" fill="white"/>
<path d="M52.8716 151.521C55.2812 151.521 57.2346 149.568 57.2346 147.158C57.2346 144.749 55.2812 142.795 52.8716 142.795C50.4619 142.795 48.5085 144.749 48.5085 147.158C48.5085 149.568 50.4619 151.521 52.8716 151.521Z" fill="white"/>
<path d="M66.197 151.521C68.6067 151.521 70.5601 149.568 70.5601 147.158C70.5601 144.749 68.6067 142.795 66.197 142.795C63.7874 142.795 61.834 144.749 61.834 147.158C61.834 149.568 63.7874 151.521 66.197 151.521Z" fill="white"/>
<path d="M20.1399 149.642V315.413H-0.428223L20.1399 149.642Z" fill="#1B1A1C"/>
<path d="M336.474 323.451L342.5 318.5V316L341.108 314.586V296.967C338.152 301.824 334.581 306.413 330.385 310.612C302.049 338.948 256.112 338.948 227.777 310.612C199.442 282.277 199.442 236.34 227.777 208.005C256.112 179.669 302.049 179.669 330.385 208.005C334.584 212.204 338.155 216.793 341.108 221.65V199.643C340.723 199.244 340.337 198.841 339.941 198.445C306.329 164.833 251.829 164.833 218.217 198.445C184.605 232.057 184.605 286.557 218.217 320.169C230.212 332.163 244.868 339.875 260.284 343.311H297.87C311.835 340.202 325.171 333.584 336.474 323.451Z" fill="#1B1A1C"/>
<path d="M341.981 303.686L332.651 313.016L383.175 363.54L392.505 354.21L341.981 303.686Z" fill="#9B51E0"/>
<path d="M338.255 307.414L332.649 313.019L383.174 363.543L388.779 357.938L338.255 307.414Z" fill="#1B1A1C"/>
<path d="M218.829 187.714C185.217 221.326 185.217 275.826 218.829 309.438C252.441 343.05 306.94 343.05 340.552 309.438C374.164 275.826 374.164 221.326 340.552 187.714C306.94 154.102 252.441 154.102 218.829 187.714ZM330.996 299.882C302.661 328.217 256.724 328.217 228.388 299.882C200.053 271.546 200.053 225.61 228.388 197.274C256.724 168.939 302.661 168.939 330.996 197.274C359.328 225.606 359.328 271.546 330.996 299.882Z" fill="#E6E5E6"/>
<path d="M218.221 189.247C184.609 222.859 184.609 277.358 218.221 310.97C251.833 344.582 306.332 344.582 339.944 310.97C373.556 277.358 373.556 222.859 339.944 189.247C306.332 155.635 251.833 155.635 218.221 189.247ZM330.385 301.414C302.049 329.749 256.112 329.749 227.777 301.414C199.442 273.079 199.442 227.142 227.777 198.806C256.112 170.471 302.049 170.471 330.385 198.806C358.72 227.138 358.72 273.079 330.385 301.414Z" fill="#9B51E0"/>
<path d="M384.05 342.415L371.376 355.089L452.643 436.357L465.317 423.682L384.05 342.415Z" fill="#9B51E0"/>
<path d="M377.714 348.755L371.378 355.09L452.182 435.894L458.518 429.559L377.714 348.755Z" fill="#1B1A1C"/>
<g opacity="0.29">
<path d="M297.585 179.944L209.324 268.205C209.324 268.205 212.537 287.151 227.777 301.414L330.384 198.806C330.384 198.806 317.754 185.981 297.585 179.944Z" fill="#E6E5E6"/>
</g>
<path d="M393.262 199.327L380.195 195.826C373.99 194.163 370.273 187.727 371.936 181.521L375.006 170.064L410.637 179.611L407.567 191.068C405.904 197.274 399.467 200.99 393.262 199.327Z" fill="#1B1A1C"/>
<path d="M393.924 174.327L393.015 174.084L392.987 174.077L392.986 174.077L392.958 174.069L392.049 173.825L376.097 169.54C377.412 164.338 377.607 160.928 377.178 158.484C376.714 155.839 375.53 154.42 374.535 153.228L374.535 153.228C374.533 153.226 374.532 153.224 374.53 153.222C372.012 150.113 370.14 147.22 369.531 146.184C357.852 125.951 364.785 100.081 385.017 88.3997C405.251 76.718 431.123 83.6505 442.805 103.884C454.486 124.117 447.554 149.989 427.321 161.671C424.926 163.054 422.453 164.175 419.934 165.045L419.92 165.05L419.905 165.055C419.742 165.117 419.577 165.178 419.404 165.242L419.39 165.247C417.933 165.782 416.198 166.419 414.473 168.477C412.88 170.379 411.344 173.43 409.882 178.592L393.924 174.327Z" fill="#BDFF66" stroke="#1B1A1C" stroke-width="2"/>
<path d="M411.677 91.7056C394.169 87.0144 376.105 97.4629 371.406 114.999C368.803 124.716 370.727 134.939 376.685 143.049" stroke="white" stroke-width="4"/>
<path d="M401.838 177.485C404.005 169.398 408.121 158.288 415.417 151.284C419.721 147.155 423.15 146.396 423.257 146.373L423.259 146.372C422.416 145.638 421.456 144.669 420.661 143.88C418.97 142.2 417.41 140.367 416.17 138.325C415.43 137.105 414.707 135.739 414.269 134.318C414.566 134.329 414.863 134.332 415.16 134.327C416.314 134.309 417.557 134.228 418.629 133.767C420.379 133.013 421.25 130.913 420.42 129.157C419.623 127.466 417.325 126.792 415.723 127.733C413.794 128.865 413.44 131.33 413.876 133.341C413.935 133.614 414.004 133.885 414.081 134.155C412.34 134.068 410.616 133.705 408.981 133.105C406.905 132.342 404.948 131.184 403.286 129.705C403.903 129.523 404.481 129.229 404.985 128.789C406.398 127.556 406.855 125.296 406.62 123.508C406.379 121.679 404.955 119.937 403.472 118.91C402.541 118.263 401.284 117.78 400.148 118.126C398.588 118.602 398.477 120.771 398.631 122.113C398.87 124.183 399.921 126.095 401.195 127.706C401.734 128.388 402.327 129.026 402.964 129.615C402.781 129.659 402.595 129.694 402.409 129.72C400.304 130.017 398.086 129.379 396.179 128.519C396.073 128.471 395.969 128.423 395.864 128.373C396.926 126.821 397.569 124.736 396.828 122.943C396.37 121.835 395.428 121.028 394.449 120.384C393.494 119.755 392.455 119.132 391.342 118.836C390.567 118.63 389.637 118.558 388.983 119.107C388.299 119.679 388.248 120.597 388.497 121.395C388.79 122.325 389.394 123.145 389.993 123.901C390.756 124.862 391.629 125.734 392.586 126.499C393.533 127.255 394.561 127.908 395.648 128.44C393.575 131.366 389.266 132.358 385.743 132.464C385.758 132.488 387.302 134.991 387.71 141.02C388.392 151.102 385.718 163.721 383.357 172.532" stroke="#1B1A1C" stroke-width="2" stroke-linejoin="round"/>
<path d="M384.825 204.681C381.245 203.722 379.121 200.043 380.08 196.464L393.042 199.937C392.083 203.517 388.404 205.641 384.825 204.681Z" fill="#1B1A1C"/>
<path d="M373.945 174.022L392.183 178.909L374.306 172.678L373.945 174.022Z" fill="#F2F2F3"/>
<path d="M372.942 177.764L391.18 182.651L373.303 176.42L372.942 177.764Z" fill="#F2F2F3"/>
<path d="M371.94 181.507L390.178 186.394L372.3 180.163L371.94 181.507Z" fill="#F2F2F3"/>
</g>
<defs>
<clipPath id="clip0_605_3697">
<rect width="534" height="454" fill="white" transform="matrix(-1 0 0 1 534 0)"/>
</clipPath>
</defs>
</svg>
