<svg width="626" height="702" viewBox="0 0 626 702" fill="none" xmlns="http://www.w3.org/2000/svg">
<g clip-path="url(#clip0_603_2981)">
<path d="M626 463.016L424.923 335.776L524.124 134.65L373.645 219.614L231.444 0L211.598 197.719L0 149.691L183.587 339.309L20.314 406.776L198.183 415.2L136.303 680.16L337.446 496.434L547.735 665.744L434.125 452.004L626 463.016Z" fill="#9B51E0"/>
<path d="M347.971 707.748C438.957 707.748 512.717 698.835 512.717 687.84C512.717 676.845 438.957 667.932 347.971 667.932C256.984 667.932 183.225 676.845 183.225 687.84C183.225 698.835 256.984 707.748 347.971 707.748Z" fill="#1B1A1C"/>
<path d="M465.999 701.51H235.48C235.48 701.51 213.832 626.095 211.129 619.533C208.427 612.971 205.339 613.742 197.235 604.481L161.341 550.058H392.021V395.903C392.021 395.903 419.605 439.641 429.838 447.246C429.838 447.246 426.622 427.066 426.33 419.754C426.038 412.442 424.868 402.5 424.868 402.5C424.868 402.5 400.931 379.587 400.559 342.925C400.184 306.263 409.837 276.563 432.732 280.446C455.627 284.33 458.545 334.693 464.158 347.038C469.768 359.384 484.361 369.861 491.843 396.796C499.326 423.732 519.529 474.24 521.772 481.723C524.016 489.205 527.382 513.15 521.772 550.934C516.159 588.717 465.999 701.51 465.999 701.51Z" fill="#FF9A3C"/>
<path d="M466.322 702H235.108L235.007 701.642C234.792 700.888 213.339 626.178 210.678 619.717C209.198 616.122 207.628 614.823 205.03 612.673C202.973 610.974 200.417 608.855 196.867 604.801L196.825 604.749L160.428 549.565H391.531V394.198L392.441 395.639C392.708 396.063 418.427 436.755 429.158 446.058C428.452 441.514 426.087 425.969 425.84 419.772C425.573 413.085 424.555 404.077 424.402 402.726C423.496 401.823 417.945 396.129 412.432 386.705C406.898 377.246 400.264 361.972 400.069 342.925C399.934 329.52 401.167 317.268 403.64 307.497C406.349 296.797 410.455 289.041 415.846 284.438C420.619 280.367 426.327 278.859 432.815 279.96C440.419 281.249 446.505 287.509 451.424 299.094C455.582 308.886 458.19 320.881 460.289 330.521C461.814 337.531 463.13 343.589 464.606 346.837C466.538 351.089 469.535 355.101 473.006 359.742C479.425 368.332 487.414 379.025 492.316 396.664C497.422 415.047 508.402 444.272 515.669 463.607C519.07 472.656 521.526 479.194 522.241 481.577C522.808 483.463 524.694 490.723 525.208 504.941C525.712 518.916 524.722 534.412 522.255 551C516.697 588.419 466.951 700.576 466.447 701.705L466.322 702ZM235.851 701.017H465.68C468.521 694.594 515.885 587.21 521.283 550.857C528.063 505.198 521.578 482.789 521.297 481.858C520.591 479.503 518.011 472.642 514.745 463.951C507.471 444.599 496.484 415.35 491.364 396.925C486.515 379.462 478.584 368.85 472.214 360.325C468.709 355.636 465.683 351.585 463.707 347.24C462.185 343.895 460.858 337.791 459.323 330.726C457.235 321.128 454.637 309.181 450.517 299.472C445.741 288.221 439.895 282.156 432.649 280.926C426.466 279.877 421.022 281.308 416.482 285.181C406.388 293.796 400.76 314.84 401.049 342.911C401.24 361.743 407.805 376.85 413.276 386.205C419.202 396.338 425.145 402.08 425.205 402.139L425.333 402.26L425.354 402.438C425.364 402.538 426.528 412.484 426.82 419.73C427.108 426.928 430.29 446.961 430.325 447.162L430.516 448.354L429.547 447.635C420.282 440.753 397.44 405.324 392.514 397.592V550.544H162.255L197.627 604.176C201.111 608.157 203.63 610.241 205.655 611.915C208.277 614.086 210.011 615.521 211.584 619.342C214.2 625.696 234.045 694.726 235.851 701.017Z" fill="#1B1A1C"/>
<path d="M153.151 348.07C153.151 348.07 138.818 337.954 132.072 313.082C125.326 288.21 142.612 277.25 153.151 284.837V348.07Z" fill="#FF9A3C"/>
<path d="M153.644 349.022L152.87 348.473C152.724 348.372 138.315 337.968 131.6 313.211C129.769 306.454 129.564 300.365 130.995 295.109C132.249 290.51 134.698 286.838 138.082 284.497C142.935 281.134 148.819 281.113 153.439 284.438L153.644 284.584V349.022ZM145.894 282.947C143.417 282.947 140.909 283.732 138.641 285.303C130.207 291.145 129.964 303.415 132.548 312.95C138.266 334.032 149.597 344.53 152.658 347.055V285.094C150.587 283.663 148.253 282.947 145.894 282.947Z" fill="#1B1A1C"/>
<path d="M363.436 117.652H189.634C169.567 117.652 153.15 134.069 153.15 154.137V582.166C153.15 602.234 169.567 618.651 189.634 618.651H363.436C383.503 618.651 399.92 602.234 399.92 582.166V154.137C399.92 134.073 383.503 117.652 363.436 117.652Z" fill="#CCCACE"/>
<path d="M363.436 619.147H189.634C169.244 619.147 152.657 602.56 152.657 582.169V154.137C152.657 133.746 169.244 117.159 189.634 117.159H363.436C383.826 117.159 400.413 133.746 400.413 154.137V582.166C400.413 602.557 383.826 619.147 363.436 619.147ZM189.634 118.146C169.789 118.146 153.644 134.292 153.644 154.137V582.166C153.644 602.011 169.789 618.157 189.634 618.157H363.436C383.281 618.157 399.426 602.011 399.426 582.166V154.137C399.426 134.292 383.281 118.146 363.436 118.146H189.634Z" fill="#1B1A1C"/>
<path d="M365.171 126.455H342.717H341.102H211.791H207.932H187.722C173.293 126.455 161.489 138.45 161.489 153.113V574.103C161.489 588.766 173.296 600.761 187.722 600.761H365.171C379.601 600.761 391.404 588.766 391.404 574.103V153.113C391.404 138.45 379.601 126.455 365.171 126.455Z" fill="white"/>
<path d="M365.171 601.254H187.722C172.984 601.254 160.996 589.075 160.996 574.103V153.113C160.996 138.141 172.987 125.962 187.722 125.962H365.171C379.91 125.962 391.898 138.141 391.898 153.113V574.103C391.898 589.075 379.91 601.254 365.171 601.254ZM187.722 126.948C173.529 126.948 161.979 138.686 161.979 153.113V574.103C161.979 588.53 173.525 600.268 187.722 600.268H365.171C379.365 600.268 390.915 588.53 390.915 574.103V153.113C390.915 138.686 379.368 126.948 365.171 126.948H187.722Z" fill="#1B1A1C"/>
<path d="M365.44 228.074C369.603 228.074 372.977 224.7 372.977 220.537C372.977 216.375 369.603 213 365.44 213C361.277 213 357.903 216.375 357.903 220.537C357.903 224.7 361.277 228.074 365.44 228.074Z" fill="#FFCA99"/>
<path d="M265.184 478.422H198.731V491.275H265.184V478.422Z" fill="#1B1A1C"/>
<path d="M336.941 502.335H198.731V515.188H336.941V502.335Z" fill="#1B1A1C"/>
<path d="M308.105 478.422H274.877V491.275H308.105V478.422Z" fill="#1B1A1C"/>
<rect x="179.996" y="234" width="192.995" height="207" rx="9" fill="#FFCA99"/>
<path d="M161.996 383C208.004 383 198.036 356.47 237.909 356.47C277.783 356.47 266.281 382.989 316.123 382.989C362.131 382.989 352.162 356.458 392.036 356.458" stroke="#1B1A1C" stroke-width="1.93925"/>
<path d="M153.151 506.536C153.151 506.536 142.125 507.074 131.982 508.266C121.839 509.461 113.783 525.871 114.377 538.4C114.975 550.93 114.377 571.22 134.368 582.857C154.359 594.494 184.493 603.148 197.023 588.527C209.552 573.906 198.218 552.424 183.298 544.069C168.379 535.715 153.151 526.451 153.151 523.467C153.151 520.483 153.151 506.536 153.151 506.536Z" fill="#FF9A3C"/>
<path d="M176.876 596.711C173.92 596.711 171.036 596.429 168.421 596.026C157.691 594.369 145.189 589.725 134.122 583.285C115.235 572.29 114.492 553.483 113.999 541.037C113.964 540.137 113.929 539.265 113.888 538.428C113.28 525.659 121.485 509.009 131.926 507.783C141.972 506.602 153.019 506.053 153.13 506.049L153.647 506.025V523.474C153.647 524.505 156.562 528.535 183.545 543.646C193.087 548.988 200.698 559.333 202.487 569.383C203.79 576.719 202.032 583.451 197.405 588.853C192.184 594.932 184.302 596.711 176.876 596.711ZM152.657 507.053C150.361 507.175 140.812 507.72 132.038 508.755C127.532 509.287 122.992 513.136 119.581 519.319C116.34 525.197 114.579 532.321 114.867 538.376C114.909 539.217 114.94 540.089 114.978 540.995C115.225 547.22 115.531 554.967 118.084 562.428C121.068 571.151 126.476 577.695 134.612 582.434C145.574 588.815 157.951 593.414 168.563 595.054C177.515 596.436 189.652 596.37 196.644 588.207C201.073 583.038 202.755 576.587 201.504 569.549C199.767 559.774 192.351 549.707 183.052 544.5C152.65 527.475 152.65 524.46 152.65 523.47V507.053H152.657Z" fill="#1B1A1C"/>
<path d="M161.996 413C208.004 413 198.036 386.47 237.909 386.47C277.783 386.47 266.281 412.989 316.123 412.989C362.131 412.989 352.162 386.458 392.036 386.458" stroke="#1B1A1C" stroke-width="1.93925"/>
<path fill-rule="evenodd" clip-rule="evenodd" d="M363.991 462H188.995C184.577 462 180.996 465.582 180.996 470V524C180.996 528.418 184.577 532 188.995 532H363.991C368.409 532 371.991 528.418 371.991 524V470C371.991 465.582 368.409 462 363.991 462ZM188.995 461C184.025 461 179.996 465.029 179.996 470V524C179.996 528.971 184.025 533 188.995 533H363.991C368.962 533 372.991 528.971 372.991 524V470C372.991 465.029 368.962 461 363.991 461H188.995Z" fill="black"/>
<path d="M123.871 495.545C103.026 473.611 108.059 459.442 115.218 448.402C122.377 437.363 131.927 422.742 142.667 428.112C153.408 433.483 151.966 439.749 161.342 450.191C170.717 460.633 197.864 485.398 182.35 504.792C166.837 524.186 152.515 525.679 123.871 495.545Z" fill="#FF9A3C"/>
<path d="M160.153 519.35C150.25 519.35 138.894 512.066 123.517 495.885C113.964 485.835 109.07 476.689 108.552 467.918C108.066 459.681 111.64 453.019 114.808 448.135C121.94 437.14 131.707 422.082 142.889 427.674C149.486 430.971 151.594 434.625 154.262 439.252C156.02 442.295 158.01 445.745 161.706 449.865C162.668 450.935 163.846 452.189 165.089 453.512C176.212 465.344 196.915 487.367 182.732 505.101C175.111 514.626 168.41 519.013 161.004 519.329C160.723 519.343 160.438 519.35 160.153 519.35ZM124.229 495.204C139.839 511.628 151.167 518.763 160.963 518.346C168.059 518.044 174.538 513.768 181.965 504.486C195.616 487.423 175.292 465.802 164.374 454.186C163.123 452.855 161.942 451.598 160.973 450.521C157.208 446.325 155.189 442.827 153.407 439.742C150.719 435.084 148.777 431.718 142.445 428.553C132.048 423.356 122.558 437.988 115.628 448.67C112.543 453.425 109.059 459.907 109.532 467.859C110.039 476.387 114.846 485.332 124.229 495.204Z" fill="#1B1A1C"/>
<path d="M163.992 429.307C149.562 444.887 133.719 443.032 121.484 423.638C109.25 404.244 103.286 389.623 117.604 371.424C131.926 353.225 138.888 353.819 153.209 353.819V367.544C153.213 367.544 184.716 406.929 163.992 429.307Z" fill="#FF9A3C"/>
<path d="M144.251 440.232C143.678 440.232 143.105 440.204 142.531 440.152C134.74 439.433 127.32 433.812 121.068 423.902C114.78 413.936 110.341 405.571 109.101 397.157C107.77 388.126 110.351 379.851 117.219 371.122C131.242 353.301 138.571 353.315 151.89 353.329H153.703V367.377C154.672 368.617 161.911 378.087 166.826 389.845C169.921 397.244 171.505 404.098 171.54 410.215C171.585 417.906 169.164 424.444 164.35 429.644C157.909 436.598 150.997 440.232 144.251 440.232ZM150.646 354.309C138.03 354.309 131.291 354.83 117.997 371.726C111.307 380.23 108.792 388.265 110.08 397.012C111.366 405.741 116.524 414.842 121.908 423.374C127.991 433.017 135.157 438.478 142.629 439.169C149.597 439.815 156.86 436.286 163.637 428.97C168.275 423.961 170.606 417.656 170.567 410.226C170.536 404.244 168.976 397.519 165.937 390.241C160.74 377.802 152.914 367.95 152.838 367.853L152.73 367.717V354.312H151.9C151.469 354.312 151.052 354.309 150.646 354.309Z" fill="#1B1A1C"/>
<path d="M408.781 507.029C408.75 507.029 408.722 507.025 408.691 507.022C408.423 506.973 408.246 506.716 408.295 506.449C412.568 483.348 429.766 468.644 431.958 466.855C426.674 432.524 424.399 402.837 424.378 402.538C424.361 402.32 424.493 402.118 424.698 402.042C424.902 401.965 425.132 402.031 425.264 402.208C425.347 402.32 433.861 413.519 449.444 420.334C449.694 420.442 449.805 420.734 449.698 420.984C449.59 421.234 449.298 421.345 449.048 421.238C436.293 415.659 428.196 407.172 425.486 404.029C426.028 410.604 428.359 437.057 432.975 466.987C433.003 467.164 432.934 467.341 432.791 467.452C432.6 467.598 413.738 482.452 409.268 506.633C409.222 506.862 409.014 507.029 408.781 507.029Z" fill="#1B1A1C"/>
<path d="M153.853 412.186C160.692 401.243 161.801 389.601 156.329 386.181C150.858 382.762 140.879 388.86 134.04 399.803C127.201 410.745 126.092 422.388 131.563 425.807C137.034 429.227 147.014 423.128 153.853 412.186Z" fill="white"/>
<path d="M135.088 427.261C133.677 427.261 132.403 426.92 131.301 426.233C128.488 424.475 127.206 420.695 127.696 415.586C128.171 410.597 130.277 404.904 133.622 399.547C140.594 388.393 150.9 382.21 156.59 385.767C159.404 387.525 160.686 391.308 160.196 396.414C159.72 401.399 157.615 407.096 154.266 412.452C150.918 417.809 146.721 422.196 142.449 424.808C139.788 426.438 137.28 427.261 135.088 427.261ZM152.773 385.715C147.371 385.715 139.913 391.342 134.456 400.068C131.187 405.296 129.134 410.84 128.672 415.679C128.224 420.397 129.342 423.846 131.819 425.395C134.299 426.945 137.891 426.438 141.935 423.968C146.082 421.435 150.164 417.159 153.433 411.931C156.701 406.703 158.754 401.159 159.216 396.32C159.665 391.603 158.546 388.153 156.069 386.604C155.107 386 153.992 385.715 152.773 385.715Z" fill="#1B1A1C"/>
<path d="M168.902 496.406C176.703 486.128 178.862 474.634 173.723 470.733C168.584 466.832 158.094 472.002 150.292 482.28C142.49 492.558 140.332 504.052 145.471 507.953C150.61 511.854 161.1 506.684 168.902 496.406Z" fill="white"/>
<path d="M149.705 509.745C147.954 509.745 146.425 509.276 145.189 508.338C142.545 506.334 141.614 502.45 142.559 497.41C143.483 492.488 146.095 487.006 149.913 481.973C157.868 471.492 168.685 466.271 174.035 470.329C179.381 474.386 177.262 486.214 169.307 496.694C165.489 501.724 160.911 505.716 156.419 507.929C153.97 509.141 151.695 509.745 149.705 509.745ZM169.488 469.901C164.138 469.901 156.638 474.747 150.698 482.57C146.971 487.482 144.425 492.818 143.525 497.594C142.65 502.249 143.452 505.789 145.783 507.557C148.114 509.325 151.737 509.144 155.985 507.05C160.345 504.903 164.798 501.012 168.525 496.1C176.15 486.054 178.356 474.845 173.441 471.114C172.354 470.294 171.006 469.901 169.488 469.901Z" fill="#1B1A1C"/>
<path d="M456.048 335.871C460.551 334.221 459.735 320.69 454.224 305.647C448.713 290.605 440.595 279.748 436.092 281.398C431.588 283.048 432.404 296.58 437.915 311.622C443.426 326.664 451.544 337.521 456.048 335.871Z" fill="white"/>
<path d="M455.089 336.523C452.831 336.523 449.993 334.366 446.95 330.298C443.497 325.682 440.121 319.106 437.439 311.787C432.451 298.169 430.516 282.906 435.907 280.929C438.307 280.05 441.594 282.194 445.158 286.963C448.611 291.58 451.987 298.156 454.669 305.475C459.657 319.092 461.592 334.356 456.201 336.332C455.85 336.461 455.478 336.523 455.089 336.523ZM437.036 281.721C436.755 281.721 436.491 281.766 436.244 281.857C432.531 283.218 432.496 295.432 438.363 311.45C441.014 318.682 444.341 325.167 447.739 329.708C450.973 334.036 453.936 336.113 455.864 335.405C459.577 334.043 459.612 321.829 453.745 305.812C451.094 298.579 447.767 292.094 444.369 287.554C441.548 283.785 438.936 281.721 437.036 281.721Z" fill="#1B1A1C"/>
<path d="M185.604 581.682C192.105 573.119 193.208 563.015 188.069 559.114C182.93 555.213 173.495 558.993 166.995 567.556C160.494 576.12 159.391 586.224 164.53 590.125C169.669 594.025 179.104 590.246 185.604 581.682Z" fill="white"/>
<path d="M169.418 592.132C167.469 592.132 165.698 591.611 164.249 590.51C158.903 586.449 159.966 576.017 166.618 567.25C169.814 563.036 173.812 559.823 177.877 558.194C182.024 556.533 185.755 556.717 188.385 558.711C191.014 560.705 192.195 564.252 191.709 568.695C191.233 573.044 189.211 577.761 186.016 581.971C181.163 588.367 174.66 592.132 169.418 592.132ZM183.178 558.058C181.663 558.058 179.996 558.409 178.241 559.111C174.344 560.674 170.491 563.776 167.403 567.847C161.078 576.181 159.928 585.997 164.843 589.728C169.758 593.459 178.905 589.714 185.231 581.381C188.322 577.31 190.274 572.766 190.73 568.59C191.174 564.505 190.132 561.278 187.787 559.5C186.523 558.537 184.953 558.058 183.178 558.058Z" fill="#1B1A1C"/>
<path d="M153.151 348.07V316.75C153.151 316.75 151.886 344.124 144.706 338.701C144.703 338.701 148.319 344.568 153.151 348.07Z" fill="#1B1A1C"/>
<path d="M399.92 409.027C399.92 409.027 399.92 547.231 399.92 567.469C399.92 587.707 399.208 597.923 389.513 607.483C379.821 617.043 369.24 618.654 360.049 618.654C350.858 618.654 210.657 618.345 210.657 618.345C210.657 618.345 214.117 629.298 216.069 633.935C216.069 633.935 217.122 623.167 229.568 623.167C242.014 623.167 282.784 624.07 289.638 624.07C296.491 624.07 330.585 622.628 340.329 622.805C350.069 622.986 379.293 627.134 390.298 617.213C401.302 607.292 407.076 600.435 405.45 575.722C403.828 551.007 403.484 449.163 403.484 441.278C403.484 433.392 403.345 417.837 408.774 421.165L399.92 409.027Z" fill="#1B1A1C"/>
<path d="M174.184 596.148C174.184 596.148 164.506 595.234 154.512 592.031L156.892 598.215L176.987 598.371L174.184 596.148Z" fill="#1B1A1C"/>
<path d="M136.731 507.758C136.731 507.758 145.787 516.283 152.839 517.568L153.151 523.467C153.151 523.467 154.704 526.1 157.209 527.937C157.209 527.937 154.478 526.829 149.57 523.23C144.661 519.632 134.99 506.935 126.904 510.176C126.904 510.176 130.388 508.415 133.559 508.085C136.731 507.758 136.731 507.758 136.731 507.758Z" fill="#1B1A1C"/>
<path d="M161.996 352C208.004 352 198.036 325.47 237.909 325.47C277.783 325.47 266.281 351.989 316.123 351.989C362.131 351.989 352.162 325.458 392.036 325.458" stroke="#1B1A1C" stroke-width="2"/>
<path d="M387.529 57.5251C383.951 57.5251 380.376 60.7418 380.376 66.4665C380.376 72.1912 380.376 75.0501 380.376 75.0501C380.376 75.0501 380.376 72.1878 380.376 66.4665C380.376 60.7452 376.802 57.5251 373.224 57.5251C369.646 57.5251 364.991 57.5251 364.991 57.5251C364.991 57.5251 369.643 57.5251 373.224 57.5251C376.802 57.5251 380.376 54.3084 380.376 48.5836C380.376 42.8589 380.376 40 380.376 40C380.376 40 380.376 42.8624 380.376 48.5836C380.376 54.3084 383.951 57.5251 387.529 57.5251Z" fill="white"/>
<path d="M380.87 75.0501H379.887V66.4665C379.887 62.3709 377.552 58.0183 373.224 58.0183H364.991V57.0318H373.224C377.552 57.0318 379.887 52.6792 379.887 48.5836V40H380.87V48.5836C380.87 52.6792 383.204 57.0318 387.532 57.0318H395.765V58.0183H387.532C383.204 58.0183 380.87 62.3709 380.87 66.4665V75.0501ZM375.715 57.5251C376.757 57.9454 377.719 58.6262 378.511 59.5225C379.355 60.4812 379.984 61.6345 380.376 62.9406C380.769 61.6345 381.398 60.4812 382.242 59.5225C383.034 58.6262 383.996 57.9454 385.038 57.5251C383.996 57.1047 383.034 56.4239 382.242 55.5277C381.398 54.5689 380.769 53.4156 380.376 52.113C379.984 53.4191 379.355 54.5724 378.511 55.5277C377.719 56.4274 376.757 57.1047 375.715 57.5251Z" fill="#1B1A1C"/>
<path d="M449.537 219.635C444.56 219.635 439.585 224.109 439.585 232.074C439.585 240.04 439.585 244.017 439.585 244.017C439.585 244.017 439.585 240.036 439.585 232.074C439.585 224.113 434.611 219.635 429.633 219.635C434.611 219.635 439.585 215.161 439.585 207.195C439.585 215.157 444.56 219.635 449.537 219.635Z" fill="white"/>
<path d="M440.075 244.017H439.092V232.074C439.092 226.284 435.775 220.128 429.63 220.128H418.177V219.145H429.63C435.775 219.145 439.092 212.99 439.092 207.199V195.256H440.075V207.199C440.075 212.99 443.393 219.145 449.538 219.145H460.99V220.128H449.538C443.393 220.128 440.075 226.284 440.075 232.074V244.017ZM432.537 219.638C435.66 220.715 438.477 223.522 439.582 227.902C440.1 225.832 441.024 224.019 442.323 222.546C443.525 221.181 445.018 220.184 446.627 219.635C443.504 218.558 440.687 215.751 439.582 211.371C439.065 213.441 438.141 215.254 436.841 216.727C435.639 218.093 434.149 219.086 432.537 219.638Z" fill="#1B1A1C"/>
<path d="M108.09 335.123C103.112 335.123 98.1381 339.597 98.1381 347.563C98.1381 339.601 93.1638 335.123 88.1861 335.123C83.2048 335.123 76.7334 335.123 76.7334 335.123C76.7334 335.123 83.2083 335.123 88.1861 335.123C93.1638 335.123 98.1381 330.649 98.1381 322.684C98.1381 330.646 103.112 335.123 108.09 335.123Z" fill="white"/>
<path d="M98.6279 359.505H97.6448V347.563C97.6448 341.772 94.3275 335.616 88.1825 335.616H76.7299V334.633H88.1825C94.3275 334.633 97.6448 328.478 97.6448 322.687V310.744H98.6279V322.687C98.6279 328.478 101.945 334.633 108.09 334.633H119.543V335.616H108.09C101.945 335.616 98.6279 341.772 98.6279 347.563V359.505ZM91.09 335.127C94.2128 336.2 97.03 339.01 98.1346 343.391C98.6522 341.32 99.5762 339.507 100.875 338.034C102.081 336.669 103.571 335.672 105.179 335.123C102.056 334.05 99.2392 331.24 98.1346 326.859C97.617 328.929 96.693 330.743 95.3939 332.216C94.192 333.581 92.6983 334.578 91.09 335.127Z" fill="#1B1A1C"/>
<path d="M259.352 256L274.734 312.301L323.864 303.673L296.536 329.438L334.992 371.042L291.4 363.699L295.252 420L259.352 361.259L234.994 390.63L243.969 353.905L184.996 340.446L234.994 320.869L215.773 291.499L250.377 303.733L259.352 256Z" fill="white"/>
<path d="M352.991 290.334L334.038 286.707L329.939 302L325.942 290.501L308.249 295.575L316.378 284.145L298.993 277.214L321.469 275.317L315.985 264.154L325.76 271.962L337.814 257L336.878 274.106L348.29 272.792L339.918 280.955L352.991 290.334Z" fill="#FF9A3C"/>
<rect x="281.455" y="217.492" width="24.6155" height="25.6795" transform="rotate(180 281.455 217.492)" fill="#57F4BD"/>
<rect width="24.6155" height="32.8127" transform="matrix(-1 0 0 1 256.84 159)" fill="#CDA8F0"/>
<rect width="24.6155" height="14.2664" transform="matrix(-1 0 0 1 232.225 177.546)" fill="#FFB066"/>
<rect x="207.61" y="200.373" width="24.6155" height="8.55984" transform="rotate(180 207.61 200.373)" fill="#EC7986"/>
<line y1="-1" x2="98.4595" y2="-1" transform="matrix(-1 6.92474e-08 1.10369e-07 1 281.455 192.36)" stroke="#1B1A1C" stroke-width="2"/>
</g>
<defs>
<clipPath id="clip0_603_2981">
<rect width="626" height="702" fill="white"/>
</clipPath>
</defs>
</svg>
