<svg width="231" height="36" viewBox="0 0 231 36" fill="none" xmlns="http://www.w3.org/2000/svg">
<path d="M12.8355 5.0517V0.835938H8.05512C7.62852 0.835938 7.13919 0.948859 6.58713 1.1747C6.06016 1.37545 5.55828 1.68913 5.0815 2.11572C4.62981 2.51722 4.24086 3.04419 3.91464 3.69663C3.58842 4.32398 3.42531 5.06425 3.42531 5.91744V12.9939C3.42531 13.6212 3.29984 14.1608 3.0489 14.6125C2.79796 15.039 2.49684 15.3904 2.14552 15.6664C1.79421 15.9173 1.4178 16.1055 1.0163 16.231C0.614799 16.3314 0.276032 16.3816 0 16.3816V19.6563C0.276032 19.6563 0.614799 19.719 1.0163 19.8445C1.4178 19.9449 1.79421 20.1205 2.14552 20.3715C2.49684 20.5973 2.79796 20.911 3.0489 21.3125C3.29984 21.714 3.42531 22.2033 3.42531 22.7805V30.0828C3.42531 30.936 3.58842 31.6763 3.91464 32.3036C4.24086 32.956 4.62981 33.483 5.0815 33.8845C5.55828 34.3111 6.06016 34.6248 6.58713 34.8255C7.13919 35.0514 7.62852 35.1643 8.05512 35.1643H12.8355V30.9485H10.8029C10.3512 30.9485 9.98734 30.8607 9.71131 30.685C9.46037 30.5094 9.25962 30.2835 9.10906 30.0075C8.9585 29.7566 8.85812 29.468 8.80793 29.1418C8.78284 28.8156 8.77029 28.5144 8.77029 28.2384V22.2159C8.77029 21.4129 8.61973 20.7604 8.31861 20.2586C8.04257 19.7316 7.70381 19.3175 7.3023 19.0164C6.9259 18.6902 6.5244 18.4644 6.0978 18.3389C5.67121 18.1883 5.31989 18.1005 5.04386 18.0754V17.9625C5.31989 17.9374 5.67121 17.8621 6.0978 17.7366C6.5244 17.6112 6.9259 17.3979 7.3023 17.0967C7.70381 16.7705 8.04257 16.3314 8.31861 15.7793C8.61973 15.2022 8.77029 14.4493 8.77029 13.5209V7.79947C8.77029 7.49835 8.78284 7.18468 8.80793 6.85846C8.85812 6.53224 8.9585 6.24366 9.10906 5.99272C9.25962 5.71669 9.46037 5.49084 9.71131 5.31519C9.98734 5.13953 10.3512 5.0517 10.8029 5.0517H12.8355Z" fill="#9B51E0"/>
<path d="M18.2561 22.0277H13.1746C13.2247 23.3326 13.5133 24.4241 14.0403 25.3024C14.5924 26.1556 15.2824 26.8457 16.1105 27.3727C16.9637 27.8996 17.9298 28.276 19.0089 28.5019C20.0879 28.7277 21.192 28.8407 22.3213 28.8407C23.4254 28.8407 24.5044 28.7277 25.5584 28.5019C26.6374 28.3011 27.591 27.9373 28.4191 27.4103C29.2472 26.8833 29.9121 26.1933 30.414 25.3401C30.941 24.4618 31.2045 23.3827 31.2045 22.103C31.2045 21.1996 31.0288 20.4468 30.6775 19.8445C30.3262 19.2172 29.8619 18.7027 29.2848 18.3012C28.7076 17.8746 28.0426 17.5359 27.2898 17.2849C26.5621 17.034 25.8093 16.8207 25.0314 16.645C24.2786 16.4694 23.5383 16.3063 22.8106 16.1557C22.0829 16.0052 21.4304 15.842 20.8533 15.6664C20.3012 15.4656 19.8495 15.2147 19.4982 14.9136C19.1469 14.6124 18.9712 14.2235 18.9712 13.7467C18.9712 13.3452 19.0716 13.0315 19.2724 12.8057C19.4731 12.5548 19.7115 12.3666 19.9875 12.2411C20.2887 12.1156 20.6149 12.0403 20.9662 12.0152C21.3175 11.965 21.6437 11.94 21.9448 11.94C22.8984 11.94 23.7265 12.1282 24.4291 12.5046C25.1318 12.8559 25.5207 13.546 25.596 14.5748H30.6775C30.5771 13.3703 30.2635 12.3791 29.7365 11.6012C29.2346 10.7982 28.5947 10.1583 27.8168 9.68151C27.0389 9.20473 26.1481 8.86596 25.1443 8.66521C24.1657 8.46446 23.1494 8.36409 22.0954 8.36409C21.0415 8.36409 20.0126 8.46446 19.0089 8.66521C18.0051 8.84087 17.1017 9.16709 16.2987 9.64387C15.4957 10.0956 14.8433 10.7229 14.3414 11.5259C13.8646 12.3289 13.6262 13.3578 13.6262 14.6125C13.6262 15.4656 13.8019 16.1934 14.1532 16.7956C14.5045 17.3728 14.9688 17.8621 15.5459 18.2636C16.1231 18.64 16.7755 18.9537 17.5032 19.2046C18.2561 19.4305 19.0214 19.6312 19.7993 19.8069C21.7065 20.2084 23.187 20.6099 24.2409 21.0114C25.32 21.4129 25.8595 22.0151 25.8595 22.8181C25.8595 23.2949 25.7466 23.6964 25.5207 24.0226C25.2949 24.3238 25.0063 24.5747 24.655 24.7754C24.3288 24.9511 23.9524 25.0891 23.5258 25.1895C23.1243 25.2648 22.7353 25.3024 22.3589 25.3024C21.8319 25.3024 21.3175 25.2397 20.8156 25.1142C20.3388 24.9887 19.9122 24.8005 19.5358 24.5496C19.1594 24.2736 18.8458 23.9348 18.5948 23.5333C18.369 23.1067 18.2561 22.6048 18.2561 22.0277Z" fill="#9B51E0"/>
<path d="M46.6789 16.5321H37.9839C38.009 16.1557 38.0843 15.7291 38.2098 15.2523C38.3603 14.7756 38.5987 14.3239 38.9249 13.8973C39.2763 13.4707 39.7279 13.1194 40.28 12.8433C40.8572 12.5422 41.5723 12.3916 42.4255 12.3916C43.7304 12.3916 44.6965 12.743 45.3239 13.4456C45.9763 14.1482 46.428 15.1771 46.6789 16.5321ZM37.9839 19.9198H52.0239C52.1243 18.4142 51.9988 16.9713 51.6475 15.5911C51.2962 14.2109 50.719 12.9813 49.916 11.9023C49.1381 10.8233 48.1344 9.97009 46.9048 9.34275C45.6752 8.69031 44.2323 8.36409 42.5761 8.36409C41.0956 8.36409 39.7405 8.62757 38.5109 9.15454C37.3064 9.68151 36.265 10.4092 35.3867 11.3377C34.5084 12.2411 33.8309 13.3201 33.3541 14.5748C32.8773 15.8295 32.6389 17.1846 32.6389 18.64C32.6389 20.1456 32.8648 21.5258 33.3165 22.7805C33.7933 24.0352 34.4582 25.1142 35.3114 26.0176C36.1646 26.921 37.206 27.6236 38.4356 28.1255C39.6652 28.6023 41.0454 28.8407 42.5761 28.8407C44.7843 28.8407 46.6664 28.3388 48.2222 27.335C49.778 26.3313 50.9323 24.6625 51.6852 22.3288H46.9801C46.8044 22.9311 46.3276 23.5082 45.5497 24.0603C44.7718 24.5872 43.8433 24.8507 42.7643 24.8507C41.2587 24.8507 40.1043 24.4618 39.3013 23.6839C38.4983 22.906 38.0592 21.6513 37.9839 19.9198Z" fill="#9B51E0"/>
<path d="M54.4412 8.89106V28.3513H59.7861V18.1507C59.7861 16.1683 60.1124 14.7505 60.7648 13.8973C61.4172 13.019 62.4712 12.5798 63.9266 12.5798C65.2064 12.5798 66.0972 12.9814 66.5991 13.7844C67.101 14.5623 67.3519 15.7542 67.3519 17.3602V28.3513H72.6969V16.3816C72.6969 15.1771 72.584 14.0855 72.3582 13.1068C72.1574 12.1031 71.7935 11.2624 71.2666 10.5849C70.7396 9.88226 70.0119 9.34274 69.0834 8.96634C68.18 8.56484 67.0132 8.36409 65.5828 8.36409C64.4536 8.36409 63.3495 8.62757 62.2704 9.15454C61.1914 9.65642 60.3131 10.472 59.6356 11.6012H59.5227V8.89106H54.4412Z" fill="#9B51E0"/>
<path d="M80.1413 22.0277H75.0598C75.1099 23.3326 75.3985 24.4241 75.9255 25.3024C76.4776 26.1556 77.1676 26.8457 77.9957 27.3727C78.8489 27.8996 79.815 28.276 80.8941 28.5019C81.9731 28.7277 83.0772 28.8407 84.2065 28.8407C85.3106 28.8407 86.3896 28.7277 87.4436 28.5019C88.5226 28.3011 89.4762 27.9373 90.3043 27.4103C91.1324 26.8833 91.7973 26.1933 92.2992 25.3401C92.8262 24.4618 93.0897 23.3827 93.0897 22.103C93.0897 21.1996 92.914 20.4468 92.5627 19.8445C92.2114 19.2172 91.7472 18.7027 91.17 18.3012C90.5928 17.8746 89.9278 17.5359 89.175 17.2849C88.4473 17.034 87.6945 16.8207 86.9166 16.645C86.1638 16.4694 85.4235 16.3063 84.6958 16.1557C83.9681 16.0052 83.3156 15.842 82.7385 15.6664C82.1864 15.4656 81.7347 15.2147 81.3834 14.9136C81.0321 14.6124 80.8564 14.2235 80.8564 13.7467C80.8564 13.3452 80.9568 13.0315 81.1576 12.8057C81.3583 12.5548 81.5967 12.3666 81.8727 12.2411C82.1739 12.1156 82.5001 12.0403 82.8514 12.0152C83.2027 11.965 83.5289 11.94 83.8301 11.94C84.7836 11.94 85.6117 12.1282 86.3143 12.5046C87.017 12.8559 87.4059 13.546 87.4812 14.5748H92.5627C92.4623 13.3703 92.1487 12.3791 91.6217 11.6012C91.1198 10.7982 90.4799 10.1583 89.702 9.68151C88.9241 9.20473 88.0333 8.86596 87.0295 8.66521C86.0509 8.46446 85.0346 8.36409 83.9806 8.36409C82.9267 8.36409 81.8978 8.46446 80.8941 8.66521C79.8903 8.84087 78.9869 9.16709 78.1839 9.64387C77.3809 10.0956 76.7285 10.7229 76.2266 11.5259C75.7498 12.3289 75.5114 13.3578 75.5114 14.6125C75.5114 15.4656 75.6871 16.1934 76.0384 16.7956C76.3897 17.3728 76.854 17.8621 77.4311 18.2636C78.0083 18.64 78.6607 18.9537 79.3884 19.2046C80.1413 19.4305 80.9066 19.6312 81.6845 19.8069C83.5917 20.2084 85.0722 20.6099 86.1261 21.0114C87.2052 21.4129 87.7447 22.0151 87.7447 22.8181C87.7447 23.2949 87.6318 23.6964 87.4059 24.0226C87.1801 24.3238 86.8915 24.5747 86.5402 24.7754C86.214 24.9511 85.8376 25.0891 85.411 25.1895C85.0095 25.2648 84.6205 25.3024 84.2441 25.3024C83.7171 25.3024 83.2027 25.2397 82.7008 25.1142C82.224 24.9887 81.7975 24.8005 81.421 24.5496C81.0446 24.2736 80.731 23.9348 80.48 23.5333C80.2542 23.1067 80.1413 22.6048 80.1413 22.0277Z" fill="#9B51E0"/>
<path d="M108.564 16.5321H99.8691C99.8942 16.1557 99.9695 15.7291 100.095 15.2523C100.246 14.7756 100.484 14.3239 100.81 13.8973C101.161 13.4707 101.613 13.1194 102.165 12.8433C102.742 12.5422 103.458 12.3916 104.311 12.3916C105.616 12.3916 106.582 12.743 107.209 13.4456C107.862 14.1482 108.313 15.1771 108.564 16.5321ZM99.8691 19.9198H113.909C114.009 18.4142 113.884 16.9713 113.533 15.5911C113.181 14.2109 112.604 12.9813 111.801 11.9023C111.023 10.8233 110.02 9.97009 108.79 9.34275C107.56 8.69031 106.117 8.36409 104.461 8.36409C102.981 8.36409 101.626 8.62757 100.396 9.15454C99.1916 9.68151 98.1502 10.4092 97.2719 11.3377C96.3936 12.2411 95.7161 13.3201 95.2393 14.5748C94.7625 15.8295 94.5241 17.1846 94.5241 18.64C94.5241 20.1456 94.75 21.5258 95.2017 22.7805C95.6785 24.0352 96.3434 25.1142 97.1966 26.0176C98.0498 26.921 99.0912 27.6236 100.321 28.1255C101.55 28.6023 102.931 28.8407 104.461 28.8407C106.67 28.8407 108.552 28.3388 110.107 27.335C111.663 26.3313 112.818 24.6625 113.57 22.3288H108.865C108.69 22.9311 108.213 23.5082 107.435 24.0603C106.657 24.5872 105.729 24.8507 104.649 24.8507C103.144 24.8507 101.99 24.4618 101.187 23.6839C100.384 22.906 99.9444 21.6513 99.8691 19.9198Z" fill="#9B51E0"/>
<path d="M114.294 30.9485V35.1643H119.074C119.501 35.1643 119.978 35.0514 120.504 34.8255C121.057 34.6248 121.558 34.3111 122.01 33.8845C122.487 33.483 122.888 32.956 123.215 32.3036C123.541 31.6763 123.704 30.936 123.704 30.0828V22.7805C123.704 22.2033 123.829 21.714 124.08 21.3125C124.331 20.911 124.632 20.5973 124.984 20.3715C125.335 20.1205 125.711 19.9449 126.113 19.8445C126.514 19.719 126.866 19.6563 127.167 19.6563V16.3816C126.866 16.3816 126.514 16.3314 126.113 16.231C125.711 16.1055 125.335 15.9173 124.984 15.6664C124.632 15.3904 124.331 15.039 124.08 14.6125C123.829 14.1608 123.704 13.6212 123.704 12.9939V5.91744C123.704 5.06425 123.541 4.32398 123.215 3.69663C122.888 3.04419 122.487 2.51722 122.01 2.11572C121.558 1.68913 121.057 1.37545 120.504 1.1747C119.978 0.948859 119.501 0.835938 119.074 0.835938H114.294V5.0517H116.326C116.778 5.0517 117.129 5.13953 117.38 5.31519C117.656 5.49084 117.87 5.71669 118.02 5.99272C118.171 6.24366 118.259 6.53224 118.284 6.85846C118.334 7.18468 118.359 7.49835 118.359 7.79947V13.5209C118.359 14.4493 118.497 15.2022 118.773 15.7793C119.074 16.3314 119.413 16.7705 119.789 17.0967C120.191 17.3979 120.605 17.6112 121.031 17.7366C121.458 17.8621 121.809 17.9374 122.085 17.9625V18.0754C121.809 18.1005 121.458 18.1883 121.031 18.3389C120.605 18.4644 120.191 18.6902 119.789 19.0164C119.413 19.3175 119.074 19.7316 118.773 20.2586C118.497 20.7604 118.359 21.4129 118.359 22.2159V28.2384C118.359 28.5144 118.334 28.8156 118.284 29.1418C118.259 29.468 118.171 29.7566 118.02 30.0075C117.87 30.2835 117.656 30.5094 117.38 30.685C117.129 30.8607 116.778 30.9485 116.326 30.9485H114.294Z" fill="#9B51E0"/>
<path d="M129.764 8.89106V28.3513H135.109V17.0591C135.109 16.1055 135.247 15.3402 135.524 14.763C135.8 14.1608 136.126 13.7091 136.502 13.4079C136.904 13.0817 137.305 12.8684 137.707 12.7681C138.133 12.6426 138.472 12.5798 138.723 12.5798C139.576 12.5798 140.216 12.7304 140.643 13.0315C141.094 13.3076 141.408 13.684 141.584 14.1608C141.784 14.6375 141.897 15.1645 141.922 15.7417C141.948 16.2937 141.96 16.8583 141.96 17.4355V28.3513H147.305V17.5108C147.305 16.9085 147.343 16.3188 147.418 15.7417C147.518 15.1394 147.694 14.6124 147.945 14.1608C148.221 13.684 148.585 13.3076 149.037 13.0315C149.513 12.7304 150.128 12.5798 150.881 12.5798C151.634 12.5798 152.223 12.7053 152.65 12.9563C153.102 13.2072 153.44 13.546 153.666 13.9726C153.892 14.3992 154.03 14.901 154.08 15.4782C154.131 16.0553 154.156 16.6701 154.156 17.3226V28.3513H159.501V15.3276C159.501 14.0729 159.325 13.0064 158.974 12.1282C158.622 11.2248 158.133 10.4971 157.506 9.945C156.878 9.39293 156.126 8.99143 155.247 8.74049C154.369 8.48956 153.415 8.36409 152.387 8.36409C151.031 8.36409 149.852 8.69031 148.848 9.34275C147.87 9.99519 147.092 10.748 146.515 11.6012C145.988 10.3967 145.21 9.55604 144.181 9.07926C143.177 8.60248 142.06 8.36409 140.831 8.36409C139.551 8.36409 138.409 8.64012 137.406 9.19218C136.427 9.74425 135.586 10.5222 134.884 11.5259H134.808V8.89106H129.764Z" fill="#1B1A1C"/>
<path d="M168.469 5.8798V1.47583H163.124V5.8798H168.469ZM163.124 8.89106V28.3513H168.469V8.89106H163.124Z" fill="#1B1A1C"/>
<path d="M178.7 8.89106V3.05674H173.355V8.89106H170.118V12.4669H173.355V23.9474C173.355 24.926 173.518 25.7165 173.844 26.3187C174.17 26.921 174.609 27.3852 175.162 27.7114C175.739 28.0376 176.391 28.2509 177.119 28.3513C177.872 28.4768 178.662 28.5395 179.49 28.5395C180.017 28.5395 180.557 28.527 181.109 28.5019C181.661 28.4768 182.163 28.4266 182.614 28.3513V24.2108C182.363 24.261 182.1 24.2987 181.824 24.3238C181.548 24.3489 181.259 24.3614 180.958 24.3614C180.055 24.3614 179.453 24.2108 179.151 23.9097C178.85 23.6086 178.7 23.0063 178.7 22.103V12.4669H182.614V8.89106H178.7Z" fill="#1B1A1C"/>
<path d="M191.18 8.89106V3.05674H185.835V8.89106H182.598V12.4669H185.835V23.9474C185.835 24.926 185.998 25.7165 186.324 26.3187C186.651 26.921 187.09 27.3852 187.642 27.7114C188.219 28.0376 188.871 28.2509 189.599 28.3513C190.352 28.4768 191.142 28.5395 191.97 28.5395C192.497 28.5395 193.037 28.527 193.589 28.5019C194.141 28.4768 194.643 28.4266 195.095 28.3513V24.2108C194.844 24.261 194.58 24.2987 194.304 24.3238C194.028 24.3489 193.74 24.3614 193.438 24.3614C192.535 24.3614 191.933 24.2108 191.632 23.9097C191.331 23.6086 191.18 23.0063 191.18 22.103V12.4669H195.095V8.89106H191.18Z" fill="#1B1A1C"/>
<path d="M209.984 16.5321H201.289C201.314 16.1557 201.389 15.7291 201.515 15.2523C201.665 14.7756 201.904 14.3239 202.23 13.8973C202.581 13.4707 203.033 13.1194 203.585 12.8433C204.162 12.5422 204.877 12.3916 205.731 12.3916C207.035 12.3916 208.002 12.743 208.629 13.4456C209.281 14.1482 209.733 15.1771 209.984 16.5321ZM201.289 19.9198H215.329C215.429 18.4142 215.304 16.9713 214.953 15.5911C214.601 14.2109 214.024 12.9814 213.221 11.9023C212.443 10.8233 211.439 9.97009 210.21 9.34275C208.98 8.69031 207.537 8.36409 205.881 8.36409C204.401 8.36409 203.045 8.62757 201.816 9.15454C200.611 9.68151 199.57 10.4092 198.692 11.3377C197.813 12.2411 197.136 13.3201 196.659 14.5748C196.182 15.8295 195.944 17.1846 195.944 18.64C195.944 20.1456 196.17 21.5258 196.621 22.7805C197.098 24.0352 197.763 25.1142 198.616 26.0176C199.47 26.921 200.511 27.6236 201.741 28.1255C202.97 28.6023 204.35 28.8407 205.881 28.8407C208.089 28.8407 209.971 28.3388 211.527 27.335C213.083 26.3313 214.237 24.6625 214.99 22.3288H210.285C210.109 22.9311 209.633 23.5082 208.855 24.0603C208.077 24.5872 207.148 24.8507 206.069 24.8507C204.564 24.8507 203.409 24.4618 202.606 23.6839C201.803 22.906 201.364 21.6513 201.289 19.9198Z" fill="#1B1A1C"/>
<path d="M217.746 8.89106V28.3513H223.091V19.581C223.091 18.7027 223.179 17.8872 223.355 17.1344C223.53 16.3816 223.819 15.7291 224.22 15.1771C224.647 14.5999 225.199 14.1482 225.877 13.822C226.554 13.4958 227.382 13.3327 228.361 13.3327C228.687 13.3327 229.026 13.3578 229.377 13.4079C229.728 13.433 230.03 13.4707 230.281 13.5209V8.55229C229.854 8.42682 229.465 8.36409 229.114 8.36409C228.436 8.36409 227.784 8.46446 227.156 8.66521C226.529 8.86596 225.939 9.15454 225.387 9.53095C224.835 9.88226 224.346 10.3214 223.919 10.8484C223.493 11.3503 223.154 11.9023 222.903 12.5046H222.828V8.89106H217.746Z" fill="#1B1A1C"/>
</svg>
